<svg width="66" height="66" viewBox="0 0 66 66" fill="none" xmlns="http://www.w3.org/2000/svg">
<rect width="66" height="66" fill="#48D4F3"/>
<path opacity="0.99" d="M56.0607 50.0607C56.6464 49.4749 56.6464 48.5251 56.0607 47.9393L46.5147 38.3934C45.9289 37.8076 44.9792 37.8076 44.3934 38.3934C43.8076 38.9792 43.8076 39.9289 44.3934 40.5147L52.8787 49L44.3934 57.4853C43.8076 58.0711 43.8076 59.0208 44.3934 59.6066C44.9792 60.1924 45.9289 60.1924 46.5147 59.6066L56.0607 50.0607ZM11 50.5H55V47.5H11V50.5Z" fill="white"/>
<path opacity="0.99" d="M9.93934 15.9393C9.35355 16.5251 9.35355 17.4749 9.93934 18.0607L19.4853 27.6066C20.0711 28.1924 21.0208 28.1924 21.6066 27.6066C22.1924 27.0208 22.1924 26.0711 21.6066 25.4853L13.1213 17L21.6066 8.51472C22.1924 7.92893 22.1924 6.97919 21.6066 6.3934C21.0208 5.80761 20.0711 5.80761 19.4853 6.3934L9.93934 15.9393ZM52 15.5L11 15.5V18.5L52 18.5V15.5Z" fill="white"/>
</svg>
